<svg width="11" height="11" viewBox="0 0 11 11" fill="none" xmlns="http://www.w3.org/2000/svg">
<path d="M5.49996 8.7085C5.59061 8.7085 5.67922 8.68162 5.7546 8.63125C5.82997 8.58089 5.88871 8.50931 5.9234 8.42556C5.95809 8.34181 5.96717 8.24965 5.94949 8.16075C5.9318 8.07184 5.88815 7.99017 5.82405 7.92607C5.75995 7.86197 5.67828 7.81832 5.58938 7.80064C5.50047 7.78295 5.40831 7.79203 5.32456 7.82672C5.24081 7.86141 5.16923 7.92015 5.11887 7.99553C5.06851 8.0709 5.04163 8.15951 5.04163 8.25016C5.04163 8.37172 5.08991 8.4883 5.17587 8.57425C5.26182 8.66021 5.3784 8.7085 5.49996 8.7085ZM7.79163 8.7085C7.88228 8.7085 7.97089 8.68162 8.04626 8.63125C8.12163 8.58089 8.18038 8.50931 8.21507 8.42556C8.24976 8.34181 8.25884 8.24965 8.24115 8.16075C8.22347 8.07184 8.17982 7.99017 8.11572 7.92607C8.05162 7.86197 7.96995 7.81832 7.88104 7.80064C7.79213 7.78295 7.69998 7.79203 7.61623 7.82672C7.53248 7.86141 7.4609 7.92015 7.41054 7.99553C7.36017 8.0709 7.33329 8.15951 7.33329 8.25016C7.33329 8.37172 7.38158 8.4883 7.46754 8.57425C7.55349 8.66021 7.67007 8.7085 7.79163 8.7085ZM7.79163 6.87516C7.88228 6.87516 7.97089 6.84828 8.04626 6.79792C8.12163 6.74756 8.18038 6.67598 8.21507 6.59223C8.24976 6.50848 8.25884 6.41632 8.24115 6.32741C8.22347 6.2385 8.17982 6.15684 8.11572 6.09274C8.05162 6.02864 7.96995 5.98499 7.88104 5.9673C7.79213 5.94962 7.69998 5.95869 7.61623 5.99338C7.53248 6.02807 7.4609 6.08682 7.41054 6.16219C7.36017 6.23757 7.33329 6.32618 7.33329 6.41683C7.33329 6.53839 7.38158 6.65497 7.46754 6.74092C7.55349 6.82687 7.67007 6.87516 7.79163 6.87516ZM5.49996 6.87516C5.59061 6.87516 5.67922 6.84828 5.7546 6.79792C5.82997 6.74756 5.88871 6.67598 5.9234 6.59223C5.95809 6.50848 5.96717 6.41632 5.94949 6.32741C5.9318 6.2385 5.88815 6.15684 5.82405 6.09274C5.75995 6.02864 5.67828 5.98499 5.58938 5.9673C5.50047 5.94962 5.40831 5.95869 5.32456 5.99338C5.24081 6.02807 5.16923 6.08682 5.11887 6.16219C5.06851 6.23757 5.04163 6.32618 5.04163 6.41683C5.04163 6.53839 5.08991 6.65497 5.17587 6.74092C5.26182 6.82687 5.3784 6.87516 5.49996 6.87516ZM8.70829 1.37516H8.24996V0.916829C8.24996 0.795272 8.20167 0.678693 8.11572 0.592739C8.02976 0.506785 7.91318 0.458496 7.79163 0.458496C7.67007 0.458496 7.55349 0.506785 7.46754 0.592739C7.38158 0.678693 7.33329 0.795272 7.33329 0.916829V1.37516H3.66663V0.916829C3.66663 0.795272 3.61834 0.678693 3.53238 0.592739C3.44643 0.506785 3.32985 0.458496 3.20829 0.458496C3.08674 0.458496 2.97016 0.506785 2.8842 0.592739C2.79825 0.678693 2.74996 0.795272 2.74996 0.916829V1.37516H2.29163C1.92695 1.37516 1.57722 1.52003 1.31935 1.77789C1.06149 2.03575 0.916626 2.38549 0.916626 2.75016V9.16683C0.916626 9.5315 1.06149 9.88124 1.31935 10.1391C1.57722 10.397 1.92695 10.5418 2.29163 10.5418H8.70829C9.07297 10.5418 9.4227 10.397 9.68056 10.1391C9.93843 9.88124 10.0833 9.5315 10.0833 9.16683V2.75016C10.0833 2.38549 9.93843 2.03575 9.68056 1.77789C9.4227 1.52003 9.07297 1.37516 8.70829 1.37516ZM9.16663 9.16683C9.16663 9.28839 9.11834 9.40497 9.03238 9.49092C8.94643 9.57687 8.82985 9.62516 8.70829 9.62516H2.29163C2.17007 9.62516 2.05349 9.57687 1.96754 9.49092C1.88158 9.40497 1.83329 9.28839 1.83329 9.16683V5.04183H9.16663V9.16683ZM9.16663 4.12516H1.83329V2.75016C1.83329 2.62861 1.88158 2.51203 1.96754 2.42607C2.05349 2.34012 2.17007 2.29183 2.29163 2.29183H2.74996V2.75016C2.74996 2.87172 2.79825 2.9883 2.8842 3.07425C2.97016 3.16021 3.08674 3.2085 3.20829 3.2085C3.32985 3.2085 3.44643 3.16021 3.53238 3.07425C3.61834 2.9883 3.66663 2.87172 3.66663 2.75016V2.29183H7.33329V2.75016C7.33329 2.87172 7.38158 2.9883 7.46754 3.07425C7.55349 3.16021 7.67007 3.2085 7.79163 3.2085C7.91318 3.2085 8.02976 3.16021 8.11572 3.07425C8.20167 2.9883 8.24996 2.87172 8.24996 2.75016V2.29183H8.70829C8.82985 2.29183 8.94643 2.34012 9.03238 2.42607C9.11834 2.51203 9.16663 2.62861 9.16663 2.75016V4.12516ZM3.20829 6.87516C3.29894 6.87516 3.38756 6.84828 3.46293 6.79792C3.5383 6.74756 3.59705 6.67598 3.63174 6.59223C3.66643 6.50848 3.6755 6.41632 3.65782 6.32741C3.64013 6.2385 3.59648 6.15684 3.53238 6.09274C3.46828 6.02864 3.38662 5.98499 3.29771 5.9673C3.2088 5.94962 3.11665 5.95869 3.0329 5.99338C2.94915 6.02807 2.87756 6.08682 2.8272 6.16219C2.77684 6.23757 2.74996 6.32618 2.74996 6.41683C2.74996 6.53839 2.79825 6.65497 2.8842 6.74092C2.97016 6.82687 3.08674 6.87516 3.20829 6.87516ZM3.20829 8.7085C3.29894 8.7085 3.38756 8.68162 3.46293 8.63125C3.5383 8.58089 3.59705 8.50931 3.63174 8.42556C3.66643 8.34181 3.6755 8.24965 3.65782 8.16075C3.64013 8.07184 3.59648 7.99017 3.53238 7.92607C3.46828 7.86197 3.38662 7.81832 3.29771 7.80064C3.2088 7.78295 3.11665 7.79203 3.0329 7.82672C2.94915 7.86141 2.87756 7.92015 2.8272 7.99553C2.77684 8.0709 2.74996 8.15951 2.74996 8.25016C2.74996 8.37172 2.79825 8.4883 2.8842 8.57425C2.97016 8.66021 3.08674 8.7085 3.20829 8.7085Z" fill="#FFA454"/>
</svg>
