<svg width="16" height="16" viewBox="0 0 16 16" fill="none" xmlns="http://www.w3.org/2000/svg">
<path d="M13.44 3.07333C12.7322 2.36534 11.7938 1.93488 10.7955 1.86025C9.79713 1.78562 8.80517 2.07177 7.99998 2.66667C7.15175 2.03576 6.09597 1.74967 5.04526 1.86603C3.99455 1.98238 3.02694 2.49252 2.3373 3.29372C1.64765 4.09493 1.2872 5.12768 1.32851 6.18401C1.36983 7.24034 1.80986 8.24178 2.55998 8.98667L7.52665 13.9533C7.58862 14.0158 7.66236 14.0654 7.7436 14.0993C7.82483 14.1331 7.91197 14.1505 7.99998 14.1505C8.08799 14.1505 8.17513 14.1331 8.25636 14.0993C8.3376 14.0654 8.41134 14.0158 8.47331 13.9533L13.44 8.98667C13.8284 8.59848 14.1366 8.13756 14.3468 7.63024C14.557 7.12293 14.6652 6.57915 14.6652 6.03C14.6652 5.48085 14.557 4.93707 14.3468 4.42976C14.1366 3.92244 13.8284 3.46152 13.44 3.07333ZM12.5 8.04667L7.99998 12.54L3.49998 8.04667C3.10343 7.64847 2.8333 7.14203 2.72347 6.59089C2.61364 6.03975 2.669 5.46846 2.88261 4.94866C3.09623 4.42887 3.45858 3.98373 3.92421 3.66908C4.38984 3.35443 4.93802 3.18429 5.49998 3.18C6.25072 3.18184 6.97005 3.48156 7.49998 4.01333C7.56196 4.07582 7.63569 4.12542 7.71693 4.15926C7.79817 4.19311 7.88531 4.21053 7.97331 4.21053C8.06132 4.21053 8.14846 4.19311 8.2297 4.15926C8.31094 4.12542 8.38467 4.07582 8.44665 4.01333C8.9922 3.54059 9.69697 3.29276 10.4183 3.32002C11.1397 3.34727 11.8238 3.64757 12.3321 4.16013C12.8404 4.67269 13.135 5.35923 13.1563 6.08079C13.1776 6.80236 12.9239 7.50506 12.4466 8.04667H12.5Z" fill="white"/>
</svg>
