<svg width="14" height="12" viewBox="0 0 14 12" fill="none" xmlns="http://www.w3.org/2000/svg">
<path d="M11.6666 0.666666H2.33331C1.80288 0.666666 1.29417 0.87738 0.9191 1.25245C0.544027 1.62753 0.333313 2.13623 0.333313 2.66667V9.33333C0.333313 9.86376 0.544027 10.3725 0.9191 10.7475C1.29417 11.1226 1.80288 11.3333 2.33331 11.3333H11.6666C12.1971 11.3333 12.7058 11.1226 13.0809 10.7475C13.4559 10.3725 13.6666 9.86376 13.6666 9.33333V2.66667C13.6666 2.13623 13.4559 1.62753 13.0809 1.25245C12.7058 0.87738 12.1971 0.666666 11.6666 0.666666ZM2.33331 2H11.6666C11.8435 2 12.013 2.07024 12.1381 2.19526C12.2631 2.32029 12.3333 2.48985 12.3333 2.66667L6.99998 5.92L1.66665 2.66667C1.66665 2.48985 1.73688 2.32029 1.86191 2.19526C1.98693 2.07024 2.1565 2 2.33331 2ZM12.3333 9.33333C12.3333 9.51014 12.2631 9.67971 12.1381 9.80474C12.013 9.92976 11.8435 10 11.6666 10H2.33331C2.1565 10 1.98693 9.92976 1.86191 9.80474C1.73688 9.67971 1.66665 9.51014 1.66665 9.33333V4.18667L6.65331 7.23333C6.75466 7.29184 6.86962 7.32265 6.98665 7.32265C7.10367 7.32265 7.21863 7.29184 7.31998 7.23333L12.3333 4.18667V9.33333Z" fill="white"/>
</svg>
