<svg width="16" height="16" viewBox="0 0 16 16" fill="none" xmlns="http://www.w3.org/2000/svg">
<path d="M11.044 14.666H11.0627C11.4147 14.666 11.7473 14.5273 11.9993 14.2753L13.8073 12.4673C13.8693 12.4055 13.9185 12.332 13.952 12.2511C13.9855 12.1703 14.0028 12.0836 14.0028 11.996C14.0028 11.9084 13.9855 11.8217 13.952 11.7409C13.9185 11.66 13.8693 11.5865 13.8073 11.5247L11.1407 8.858C11.0788 8.79604 11.0053 8.74688 10.9245 8.71334C10.8436 8.6798 10.7569 8.66253 10.6693 8.66253C10.5818 8.66253 10.4951 8.6798 10.4142 8.71334C10.3333 8.74688 10.2599 8.79604 10.198 8.858L9.13534 9.92067C8.64267 9.774 7.72334 9.44067 7.14067 8.858C6.558 8.27533 6.22467 7.356 6.078 6.86333L7.14067 5.80067C7.20263 5.73881 7.25179 5.66534 7.28533 5.58446C7.31887 5.50358 7.33614 5.41689 7.33614 5.32933C7.33614 5.24178 7.31887 5.15508 7.28533 5.0742C7.25179 4.99333 7.20263 4.91986 7.14067 4.858L4.474 2.19133C4.34655 2.07103 4.17793 2.00402 4.00267 2.00402C3.82741 2.00402 3.65879 2.07103 3.53134 2.19133L1.724 3.99933C1.47067 4.25267 1.328 4.60067 1.33334 4.956C1.34867 5.90533 1.6 9.20267 4.19867 11.8013C6.79734 14.4 10.0947 14.6507 11.044 14.666ZM4.00334 3.60533L5.72733 5.32933L4.86534 6.19133C4.78689 6.26956 4.72927 6.36617 4.69771 6.47237C4.66616 6.57856 4.66167 6.69096 4.68467 6.79933C4.70067 6.876 5.092 8.694 6.19867 9.80067C7.30534 10.9073 9.12334 11.2987 9.2 11.3147C9.30837 11.3378 9.4208 11.3334 9.52702 11.3018C9.63324 11.2702 9.72984 11.2125 9.808 11.134L10.67 10.272L12.394 11.996L11.0567 13.3327C10.2247 13.3187 7.378 13.0953 5.14134 10.858C2.89734 8.614 2.68 5.75733 2.66667 4.942L4.00334 3.60533ZM13.3327 7.33267H14.666C14.666 3.91267 12.084 1.33333 8.65934 1.33333V2.66667C11.3673 2.66667 13.3327 4.62867 13.3327 7.33267Z" fill="white"/>
<path d="M8.66602 5.33333C10.068 5.33333 10.666 5.93133 10.666 7.33333H11.9993C11.9993 5.18333 10.816 4 8.66602 4V5.33333Z" fill="white"/>
</svg>
